<?xml version="1.0" encoding="utf-8"?>
<!-- Generator: Adobe Illustrator 24.1.1, SVG Export Plug-In . SVG Version: 6.00 Build 0)  -->
<svg version="1.1" id="Layer_1" xmlns="http://www.w3.org/2000/svg" xmlns:xlink="http://www.w3.org/1999/xlink" x="0px" y="0px"
	 viewBox="0 0 128 128" style="enable-background:new 0 0 128 128;" xml:space="preserve">
<style type="text/css">
	.st0{fill:#919CA2;}
</style>
<g>
	<g>
		<path class="st0" d="M107.3,57c-7.7,0-13.9,6.2-13.9,13.9c0,16.2-13.2,29.4-29.4,29.4S34.6,87.1,34.6,70.9
			c0-13.4,9-24.7,21.2-28.2v1.6c0,3.9,2.1,7.5,5.5,9.5c3.4,2,7.6,1.9,11,0l28.8-16.6c3.4-2,5.5-5.6,5.5-9.5c0-3.9-2.1-7.5-5.5-9.5
			L72.3,1.5c-3.4-2-7.6-2-11,0c-3.4,2-5.5,5.6-5.5,9.5v3.3c-27.7,4-49,27.8-49,56.6C6.9,102.4,32.5,128,64,128s57.1-25.6,57.1-57.1
			C121.1,63.2,114.9,57,107.3,57z"/>
	</g>
</g>
</svg>
